<?xml version="1.0" encoding="UTF-8" standalone="no"?>
<!DOCTYPE svg PUBLIC "-//W3C//DTD SVG 1.1//EN"
 "http://www.w3.org/Graphics/SVG/1.1/DTD/svg11.dtd">
<!-- Generated by graphviz version 5.0.0 (20220707.1540)
 -->
<!-- Title: dependencies Pages: 1 -->
<svg width="276pt" height="196pt"
 viewBox="0.00 0.00 276.00 196.20" xmlns="http://www.w3.org/2000/svg" xmlns:xlink="http://www.w3.org/1999/xlink">
<g id="graph0" class="graph" transform="scale(1 1) rotate(0) translate(4 192.2)">
<title>dependencies</title>
<polygon fill="white" stroke="transparent" points="-4,4 -4,-192.2 272,-192.2 272,4 -4,4"/>
<text text-anchor="middle" x="134" y="-8.2" font-family="sans-serif" font-size="14.00">dependencies</text>
<g id="clust1" class="cluster">
<title>cluster_UsersModule</title>
<polygon fill="none" stroke="black" stroke-dasharray="1,5" points="8,-32.8 8,-180.2 260,-180.2 260,-32.8 8,-32.8"/>
</g>
<g id="clust4" class="cluster">
<title>cluster_UsersModule_exports</title>
<polygon fill="none" stroke="black" points="16,-97.8 16,-172.2 252,-172.2 252,-97.8 16,-97.8"/>
</g>
<!-- {
 &#160;&#160;&#160;provide: , useClass: UsersService,
}  -->
<g id="node1" class="node">
<title>{
 &#160;&#160;&#160;provide: , useClass: UsersService,
} </title>
<polygon fill="#fb8072" stroke="black" points="244.41,-164.4 23.59,-164.4 23.59,-105.6 244.41,-105.6 244.41,-164.4"/>
<text text-anchor="middle" x="134" y="-147.6" font-family="Times,serif" font-size="14.00">{</text>
<text text-anchor="middle" x="134" y="-130.8" font-family="Times,serif" font-size="14.00"> &#160;&#160;&#160;provide: , useClass: UsersService,</text>
<text text-anchor="middle" x="134" y="-114" font-family="Times,serif" font-size="14.00">} </text>
</g>
<!-- UsersModule -->
<g id="node2" class="node">
<title>UsersModule</title>
<polygon fill="#8dd3c7" stroke="black" points="179.94,-76.8 176.94,-80.8 155.94,-80.8 152.94,-76.8 88.06,-76.8 88.06,-40.8 179.94,-40.8 179.94,-76.8"/>
<text text-anchor="middle" x="134" y="-54.6" font-family="Times,serif" font-size="14.00">UsersModule</text>
</g>
<!-- UsersModule&#45;&gt;{
 &#160;&#160;&#160;provide: , useClass: UsersService,
}  -->
<g id="edge1" class="edge">
<title>UsersModule&#45;&gt;{
 &#160;&#160;&#160;provide: , useClass: UsersService,
} </title>
<path fill="none" stroke="black" stroke-dasharray="5,2" d="M134,-76.86C134,-76.86 134,-95.75 134,-95.75"/>
<polygon fill="black" stroke="black" points="130.5,-95.75 134,-105.75 137.5,-95.75 130.5,-95.75"/>
</g>
</g>
</svg>
