<?xml version="1.0" encoding="UTF-8" standalone="no"?>
<!DOCTYPE svg PUBLIC "-//W3C//DTD SVG 1.1//EN"
 "http://www.w3.org/Graphics/SVG/1.1/DTD/svg11.dtd">
<!-- Generated by graphviz version 5.0.0 (20220707.1540)
 -->
<!-- Title: dependencies Pages: 1 -->
<svg width="318pt" height="269pt"
 viewBox="0.00 0.00 318.00 269.20" xmlns="http://www.w3.org/2000/svg" xmlns:xlink="http://www.w3.org/1999/xlink">
<g id="graph0" class="graph" transform="scale(1 1) rotate(0) translate(4 265.2)">
<title>dependencies</title>
<polygon fill="white" stroke="transparent" points="-4,4 -4,-265.2 314,-265.2 314,4 -4,4"/>
<text text-anchor="middle" x="155" y="-8.2" font-family="sans-serif" font-size="14.00">dependencies</text>
<g id="clust1" class="cluster">
<title>cluster_AuthModule</title>
<polygon fill="none" stroke="black" stroke-dasharray="1,5" points="8,-32.8 8,-253.2 302,-253.2 302,-32.8 8,-32.8"/>
</g>
<g id="clust4" class="cluster">
<title>cluster_AuthModule_exports</title>
<polygon fill="none" stroke="black" points="38,-170.8 38,-245.2 272,-245.2 272,-170.8 38,-170.8"/>
</g>
<g id="clust6" class="cluster">
<title>cluster_AuthModule_providers</title>
<polygon fill="none" stroke="black" points="16,-40.8 16,-92.8 294,-92.8 294,-40.8 16,-40.8"/>
</g>
<!-- {
 &#160;&#160;&#160;provide: , useClass: AuthService,
}  -->
<g id="node1" class="node">
<title>{
 &#160;&#160;&#160;provide: , useClass: AuthService,
} </title>
<polygon fill="#fb8072" stroke="black" points="263.52,-237.4 46.48,-237.4 46.48,-178.6 263.52,-178.6 263.52,-237.4"/>
<text text-anchor="middle" x="155" y="-220.6" font-family="Times,serif" font-size="14.00">{</text>
<text text-anchor="middle" x="155" y="-203.8" font-family="Times,serif" font-size="14.00"> &#160;&#160;&#160;provide: , useClass: AuthService,</text>
<text text-anchor="middle" x="155" y="-187" font-family="Times,serif" font-size="14.00">} </text>
</g>
<!-- AuthModule -->
<g id="node2" class="node">
<title>AuthModule</title>
<polygon fill="#8dd3c7" stroke="black" points="198.55,-149.8 195.55,-153.8 174.55,-153.8 171.55,-149.8 111.45,-149.8 111.45,-113.8 198.55,-113.8 198.55,-149.8"/>
<text text-anchor="middle" x="155" y="-127.6" font-family="Times,serif" font-size="14.00">AuthModule</text>
</g>
<!-- AuthModule&#45;&gt;{
 &#160;&#160;&#160;provide: , useClass: AuthService,
}  -->
<g id="edge1" class="edge">
<title>AuthModule&#45;&gt;{
 &#160;&#160;&#160;provide: , useClass: AuthService,
} </title>
<path fill="none" stroke="black" stroke-dasharray="5,2" d="M155,-149.86C155,-149.86 155,-168.75 155,-168.75"/>
<polygon fill="black" stroke="black" points="151.5,-168.75 155,-178.75 158.5,-168.75 151.5,-168.75"/>
</g>
<!-- JwtStrategy -->
<g id="node3" class="node">
<title>JwtStrategy</title>
<ellipse fill="#fdb462" stroke="black" cx="229" cy="-66.8" rx="56.77" ry="18"/>
<text text-anchor="middle" x="229" y="-62.6" font-family="Times,serif" font-size="14.00">JwtStrategy</text>
</g>
<!-- JwtStrategy&#45;&gt;AuthModule -->
<g id="edge2" class="edge">
<title>JwtStrategy&#45;&gt;AuthModule</title>
<path fill="none" stroke="black" d="M185.57,-78.42C185.57,-78.42 185.57,-103.65 185.57,-103.65"/>
<polygon fill="black" stroke="black" points="182.07,-103.65 185.57,-113.65 189.07,-103.65 182.07,-103.65"/>
</g>
<!-- LocalStrategy -->
<g id="node4" class="node">
<title>LocalStrategy</title>
<ellipse fill="#fdb462" stroke="black" cx="89" cy="-66.8" rx="65.4" ry="18"/>
<text text-anchor="middle" x="89" y="-62.6" font-family="Times,serif" font-size="14.00">LocalStrategy</text>
</g>
<!-- LocalStrategy&#45;&gt;AuthModule -->
<g id="edge3" class="edge">
<title>LocalStrategy&#45;&gt;AuthModule</title>
<path fill="none" stroke="black" d="M132.71,-80.27C132.71,-80.27 132.71,-103.66 132.71,-103.66"/>
<polygon fill="black" stroke="black" points="129.21,-103.66 132.71,-113.66 136.21,-103.66 129.21,-103.66"/>
</g>
</g>
</svg>
