<?xml version="1.0" encoding="UTF-8" standalone="no"?>
<!DOCTYPE svg PUBLIC "-//W3C//DTD SVG 1.1//EN"
 "http://www.w3.org/Graphics/SVG/1.1/DTD/svg11.dtd">
<!-- Generated by graphviz version 5.0.0 (20220707.1540)
 -->
<!-- Title: dependencies Pages: 1 -->
<svg width="562pt" height="269pt"
 viewBox="0.00 0.00 562.00 269.20" xmlns="http://www.w3.org/2000/svg" xmlns:xlink="http://www.w3.org/1999/xlink">
<g id="graph0" class="graph" transform="scale(1 1) rotate(0) translate(4 265.2)">
<title>dependencies</title>
<polygon fill="white" stroke="transparent" points="-4,4 -4,-265.2 558,-265.2 558,4 -4,4"/>
<text text-anchor="middle" x="277" y="-8.2" font-family="sans-serif" font-size="14.00">dependencies</text>
<g id="clust1" class="cluster">
<title>cluster_OwnerModule</title>
<polygon fill="none" stroke="black" stroke-dasharray="1,5" points="8,-32.8 8,-253.2 546,-253.2 546,-32.8 8,-32.8"/>
</g>
<g id="clust6" class="cluster">
<title>cluster_OwnerModule_providers</title>
<polygon fill="none" stroke="black" points="386,-40.8 386,-92.8 538,-92.8 538,-40.8 386,-40.8"/>
</g>
<g id="clust4" class="cluster">
<title>cluster_OwnerModule_exports</title>
<polygon fill="none" stroke="black" points="120,-170.8 120,-245.2 364,-245.2 364,-170.8 120,-170.8"/>
</g>
<g id="clust3" class="cluster">
<title>cluster_OwnerModule_imports</title>
<polygon fill="none" stroke="black" points="16,-40.8 16,-92.8 378,-92.8 378,-40.8 16,-40.8"/>
</g>
<!-- PermissionsModule -->
<g id="node1" class="node">
<title>PermissionsModule</title>
<polygon fill="#8dd3c7" stroke="black" points="369.73,-84.8 366.73,-88.8 345.73,-88.8 342.73,-84.8 242.27,-84.8 242.27,-48.8 369.73,-48.8 369.73,-84.8"/>
<text text-anchor="middle" x="306" y="-62.6" font-family="Times,serif" font-size="14.00">PermissionsModule</text>
</g>
<!-- OwnerModule -->
<g id="node4" class="node">
<title>OwnerModule</title>
<polygon fill="#8dd3c7" stroke="black" points="290.65,-149.8 287.65,-153.8 266.65,-153.8 263.65,-149.8 193.35,-149.8 193.35,-113.8 290.65,-113.8 290.65,-149.8"/>
<text text-anchor="middle" x="242" y="-127.6" font-family="Times,serif" font-size="14.00">OwnerModule</text>
</g>
<!-- PermissionsModule&#45;&gt;OwnerModule -->
<g id="edge1" class="edge">
<title>PermissionsModule&#45;&gt;OwnerModule</title>
<path fill="none" stroke="black" d="M266.61,-84.91C266.61,-84.91 266.61,-103.79 266.61,-103.79"/>
<polygon fill="black" stroke="black" points="263.11,-103.79 266.61,-113.79 270.11,-103.79 263.11,-103.79"/>
</g>
<!-- RolesModule -->
<g id="node2" class="node">
<title>RolesModule</title>
<polygon fill="#8dd3c7" stroke="black" points="224.94,-84.8 221.94,-88.8 200.94,-88.8 197.94,-84.8 133.06,-84.8 133.06,-48.8 224.94,-48.8 224.94,-84.8"/>
<text text-anchor="middle" x="179" y="-62.6" font-family="Times,serif" font-size="14.00">RolesModule</text>
</g>
<!-- RolesModule&#45;&gt;OwnerModule -->
<g id="edge2" class="edge">
<title>RolesModule&#45;&gt;OwnerModule</title>
<path fill="none" stroke="black" d="M208.95,-84.91C208.95,-84.91 208.95,-103.79 208.95,-103.79"/>
<polygon fill="black" stroke="black" points="205.45,-103.79 208.95,-113.79 212.45,-103.79 205.45,-103.79"/>
</g>
<!-- UsersModule -->
<g id="node3" class="node">
<title>UsersModule</title>
<polygon fill="#8dd3c7" stroke="black" points="115.94,-84.8 112.94,-88.8 91.94,-88.8 88.94,-84.8 24.06,-84.8 24.06,-48.8 115.94,-48.8 115.94,-84.8"/>
<text text-anchor="middle" x="70" y="-62.6" font-family="Times,serif" font-size="14.00">UsersModule</text>
</g>
<!-- UsersModule&#45;&gt;OwnerModule -->
<g id="edge3" class="edge">
<title>UsersModule&#45;&gt;OwnerModule</title>
<path fill="none" stroke="black" d="M70,-85.02C70,-104.37 70,-132.2 70,-132.2 70,-132.2 183.17,-132.2 183.17,-132.2"/>
<polygon fill="black" stroke="black" points="183.17,-135.7 193.17,-132.2 183.17,-128.7 183.17,-135.7"/>
</g>
<!-- {
 &#160;&#160;&#160;provide: , useClass: OwnerService,
}  -->
<g id="node5" class="node">
<title>{
 &#160;&#160;&#160;provide: , useClass: OwnerService,
} </title>
<polygon fill="#fb8072" stroke="black" points="355.62,-237.4 128.38,-237.4 128.38,-178.6 355.62,-178.6 355.62,-237.4"/>
<text text-anchor="middle" x="242" y="-220.6" font-family="Times,serif" font-size="14.00">{</text>
<text text-anchor="middle" x="242" y="-203.8" font-family="Times,serif" font-size="14.00"> &#160;&#160;&#160;provide: , useClass: OwnerService,</text>
<text text-anchor="middle" x="242" y="-187" font-family="Times,serif" font-size="14.00">} </text>
</g>
<!-- OwnerModule&#45;&gt;{
 &#160;&#160;&#160;provide: , useClass: OwnerService,
}  -->
<g id="edge4" class="edge">
<title>OwnerModule&#45;&gt;{
 &#160;&#160;&#160;provide: , useClass: OwnerService,
} </title>
<path fill="none" stroke="black" stroke-dasharray="5,2" d="M242,-149.86C242,-149.86 242,-168.75 242,-168.75"/>
<polygon fill="black" stroke="black" points="238.5,-168.75 242,-178.75 245.5,-168.75 238.5,-168.75"/>
</g>
<!-- JwtAuthGuard -->
<g id="node6" class="node">
<title>JwtAuthGuard</title>
<ellipse fill="#fdb462" stroke="black" cx="462" cy="-66.8" rx="67.8" ry="18"/>
<text text-anchor="middle" x="462" y="-62.6" font-family="Times,serif" font-size="14.00">JwtAuthGuard</text>
</g>
<!-- JwtAuthGuard&#45;&gt;OwnerModule -->
<g id="edge5" class="edge">
<title>JwtAuthGuard&#45;&gt;OwnerModule</title>
<path fill="none" stroke="black" d="M462,-85.02C462,-104.37 462,-132.2 462,-132.2 462,-132.2 300.83,-132.2 300.83,-132.2"/>
<polygon fill="black" stroke="black" points="300.83,-128.7 290.83,-132.2 300.83,-135.7 300.83,-128.7"/>
</g>
</g>
</svg>
