<?xml version="1.0" encoding="UTF-8" standalone="no"?>
<!DOCTYPE svg PUBLIC "-//W3C//DTD SVG 1.1//EN"
 "http://www.w3.org/Graphics/SVG/1.1/DTD/svg11.dtd">
<!-- Generated by graphviz version 5.0.0 (20220707.1540)
 -->
<!-- Title: dependencies Pages: 1 -->
<svg width="284pt" height="196pt"
 viewBox="0.00 0.00 284.00 196.20" xmlns="http://www.w3.org/2000/svg" xmlns:xlink="http://www.w3.org/1999/xlink">
<g id="graph0" class="graph" transform="scale(1 1) rotate(0) translate(4 192.2)">
<title>dependencies</title>
<polygon fill="white" stroke="transparent" points="-4,4 -4,-192.2 280,-192.2 280,4 -4,4"/>
<text text-anchor="middle" x="138" y="-8.2" font-family="sans-serif" font-size="14.00">dependencies</text>
<g id="clust1" class="cluster">
<title>cluster_GlobalModule</title>
<polygon fill="none" stroke="black" stroke-dasharray="1,5" points="8,-32.8 8,-180.2 268,-180.2 268,-32.8 8,-32.8"/>
</g>
<g id="clust4" class="cluster">
<title>cluster_GlobalModule_exports</title>
<polygon fill="none" stroke="black" points="16,-97.8 16,-172.2 260,-172.2 260,-97.8 16,-97.8"/>
</g>
<!-- {
 &#160;&#160;&#160;provide: , useClass: GlobalService,
}  -->
<g id="node1" class="node">
<title>{
 &#160;&#160;&#160;provide: , useClass: GlobalService,
} </title>
<polygon fill="#fb8072" stroke="black" points="251.63,-164.4 24.37,-164.4 24.37,-105.6 251.63,-105.6 251.63,-164.4"/>
<text text-anchor="middle" x="138" y="-147.6" font-family="Times,serif" font-size="14.00">{</text>
<text text-anchor="middle" x="138" y="-130.8" font-family="Times,serif" font-size="14.00"> &#160;&#160;&#160;provide: , useClass: GlobalService,</text>
<text text-anchor="middle" x="138" y="-114" font-family="Times,serif" font-size="14.00">} </text>
</g>
<!-- GlobalModule -->
<g id="node2" class="node">
<title>GlobalModule</title>
<polygon fill="#8dd3c7" stroke="black" points="186.66,-76.8 183.66,-80.8 162.66,-80.8 159.66,-76.8 89.34,-76.8 89.34,-40.8 186.66,-40.8 186.66,-76.8"/>
<text text-anchor="middle" x="138" y="-54.6" font-family="Times,serif" font-size="14.00">GlobalModule</text>
</g>
<!-- GlobalModule&#45;&gt;{
 &#160;&#160;&#160;provide: , useClass: GlobalService,
}  -->
<g id="edge1" class="edge">
<title>GlobalModule&#45;&gt;{
 &#160;&#160;&#160;provide: , useClass: GlobalService,
} </title>
<path fill="none" stroke="black" stroke-dasharray="5,2" d="M138,-76.86C138,-76.86 138,-95.75 138,-95.75"/>
<polygon fill="black" stroke="black" points="134.5,-95.75 138,-105.75 141.5,-95.75 134.5,-95.75"/>
</g>
</g>
</svg>
