<?xml version="1.0" encoding="UTF-8" standalone="no"?>
<!DOCTYPE svg PUBLIC "-//W3C//DTD SVG 1.1//EN"
 "http://www.w3.org/Graphics/SVG/1.1/DTD/svg11.dtd">
<!-- Generated by graphviz version 5.0.0 (20220707.1540)
 -->
<!-- Title: dependencies Pages: 1 -->
<svg width="739pt" height="174pt"
 viewBox="0.00 0.00 739.00 173.80" xmlns="http://www.w3.org/2000/svg" xmlns:xlink="http://www.w3.org/1999/xlink">
<g id="graph0" class="graph" transform="scale(1 1) rotate(0) translate(4 169.8)">
<title>dependencies</title>
<polygon fill="white" stroke="transparent" points="-4,4 -4,-169.8 735,-169.8 735,4 -4,4"/>
<text text-anchor="middle" x="365.5" y="-8.2" font-family="sans-serif" font-size="14.00">dependencies</text>
<g id="clust1" class="cluster">
<title>cluster_AppModule</title>
<polygon fill="none" stroke="black" stroke-dasharray="1,5" points="8,-32.8 8,-157.8 723,-157.8 723,-32.8 8,-32.8"/>
</g>
<g id="clust3" class="cluster">
<title>cluster_AppModule_imports</title>
<polygon fill="none" stroke="black" points="16,-40.8 16,-92.8 715,-92.8 715,-40.8 16,-40.8"/>
</g>
<!-- AuthModule -->
<g id="node1" class="node">
<title>AuthModule</title>
<polygon fill="#8dd3c7" stroke="black" points="706.55,-84.8 703.55,-88.8 682.55,-88.8 679.55,-84.8 619.45,-84.8 619.45,-48.8 706.55,-48.8 706.55,-84.8"/>
<text text-anchor="middle" x="663" y="-62.6" font-family="Times,serif" font-size="14.00">AuthModule</text>
</g>
<!-- AppModule -->
<g id="node7" class="node">
<title>AppModule</title>
<polygon fill="#8dd3c7" stroke="black" points="412.66,-149.8 409.66,-153.8 388.66,-153.8 385.66,-149.8 329.34,-149.8 329.34,-113.8 412.66,-113.8 412.66,-149.8"/>
<text text-anchor="middle" x="371" y="-127.6" font-family="Times,serif" font-size="14.00">AppModule</text>
</g>
<!-- AuthModule&#45;&gt;AppModule -->
<g id="edge1" class="edge">
<title>AuthModule&#45;&gt;AppModule</title>
<path fill="none" stroke="black" d="M663,-85.08C663,-106.12 663,-137.8 663,-137.8 663,-137.8 422.84,-137.8 422.84,-137.8"/>
<polygon fill="black" stroke="black" points="422.84,-134.3 412.84,-137.8 422.84,-141.3 422.84,-134.3"/>
</g>
<!-- GlobalModule -->
<g id="node2" class="node">
<title>GlobalModule</title>
<polygon fill="#8dd3c7" stroke="black" points="600.66,-84.8 597.66,-88.8 576.66,-88.8 573.66,-84.8 503.34,-84.8 503.34,-48.8 600.66,-48.8 600.66,-84.8"/>
<text text-anchor="middle" x="552" y="-62.6" font-family="Times,serif" font-size="14.00">GlobalModule</text>
</g>
<!-- GlobalModule&#45;&gt;AppModule -->
<g id="edge2" class="edge">
<title>GlobalModule&#45;&gt;AppModule</title>
<path fill="none" stroke="black" d="M552,-84.82C552,-102.17 552,-125.8 552,-125.8 552,-125.8 422.98,-125.8 422.98,-125.8"/>
<polygon fill="black" stroke="black" points="422.98,-122.3 412.98,-125.8 422.98,-129.3 422.98,-122.3"/>
</g>
<!-- OwnerModule -->
<g id="node3" class="node">
<title>OwnerModule</title>
<polygon fill="#8dd3c7" stroke="black" points="484.65,-84.8 481.65,-88.8 460.65,-88.8 457.65,-84.8 387.35,-84.8 387.35,-48.8 484.65,-48.8 484.65,-84.8"/>
<text text-anchor="middle" x="436" y="-62.6" font-family="Times,serif" font-size="14.00">OwnerModule</text>
</g>
<!-- OwnerModule&#45;&gt;AppModule -->
<g id="edge3" class="edge">
<title>OwnerModule&#45;&gt;AppModule</title>
<path fill="none" stroke="black" d="M400,-84.91C400,-84.91 400,-103.79 400,-103.79"/>
<polygon fill="black" stroke="black" points="396.5,-103.79 400,-113.79 403.5,-103.79 396.5,-103.79"/>
</g>
<!-- PermissionsModule -->
<g id="node4" class="node">
<title>PermissionsModule</title>
<polygon fill="#8dd3c7" stroke="black" points="369.73,-84.8 366.73,-88.8 345.73,-88.8 342.73,-84.8 242.27,-84.8 242.27,-48.8 369.73,-48.8 369.73,-84.8"/>
<text text-anchor="middle" x="306" y="-62.6" font-family="Times,serif" font-size="14.00">PermissionsModule</text>
</g>
<!-- PermissionsModule&#45;&gt;AppModule -->
<g id="edge4" class="edge">
<title>PermissionsModule&#45;&gt;AppModule</title>
<path fill="none" stroke="black" d="M349.39,-84.91C349.39,-84.91 349.39,-103.79 349.39,-103.79"/>
<polygon fill="black" stroke="black" points="345.89,-103.79 349.39,-113.79 352.89,-103.79 345.89,-103.79"/>
</g>
<!-- RolesModule -->
<g id="node5" class="node">
<title>RolesModule</title>
<polygon fill="#8dd3c7" stroke="black" points="224.94,-84.8 221.94,-88.8 200.94,-88.8 197.94,-84.8 133.06,-84.8 133.06,-48.8 224.94,-48.8 224.94,-84.8"/>
<text text-anchor="middle" x="179" y="-62.6" font-family="Times,serif" font-size="14.00">RolesModule</text>
</g>
<!-- RolesModule&#45;&gt;AppModule -->
<g id="edge5" class="edge">
<title>RolesModule&#45;&gt;AppModule</title>
<path fill="none" stroke="black" d="M179,-84.82C179,-102.17 179,-125.8 179,-125.8 179,-125.8 318.86,-125.8 318.86,-125.8"/>
<polygon fill="black" stroke="black" points="318.86,-129.3 328.86,-125.8 318.86,-122.3 318.86,-129.3"/>
</g>
<!-- UsersModule -->
<g id="node6" class="node">
<title>UsersModule</title>
<polygon fill="#8dd3c7" stroke="black" points="115.94,-84.8 112.94,-88.8 91.94,-88.8 88.94,-84.8 24.06,-84.8 24.06,-48.8 115.94,-48.8 115.94,-84.8"/>
<text text-anchor="middle" x="70" y="-62.6" font-family="Times,serif" font-size="14.00">UsersModule</text>
</g>
<!-- UsersModule&#45;&gt;AppModule -->
<g id="edge6" class="edge">
<title>UsersModule&#45;&gt;AppModule</title>
<path fill="none" stroke="black" d="M70,-85.08C70,-106.12 70,-137.8 70,-137.8 70,-137.8 319.15,-137.8 319.15,-137.8"/>
<polygon fill="black" stroke="black" points="319.15,-141.3 329.15,-137.8 319.15,-134.3 319.15,-141.3"/>
</g>
</g>
</svg>
