<?xml version="1.0" encoding="UTF-8" standalone="no"?>
<!DOCTYPE svg PUBLIC "-//W3C//DTD SVG 1.1//EN"
 "http://www.w3.org/Graphics/SVG/1.1/DTD/svg11.dtd">
<!-- Generated by graphviz version 5.0.0 (20220707.1540)
 -->
<!-- Title: dependencies Pages: 1 -->
<svg width="417pt" height="269pt"
 viewBox="0.00 0.00 417.00 269.20" xmlns="http://www.w3.org/2000/svg" xmlns:xlink="http://www.w3.org/1999/xlink">
<g id="graph0" class="graph" transform="scale(1 1) rotate(0) translate(4 265.2)">
<title>dependencies</title>
<polygon fill="white" stroke="transparent" points="-4,4 -4,-265.2 413,-265.2 413,4 -4,4"/>
<text text-anchor="middle" x="204.5" y="-8.2" font-family="sans-serif" font-size="14.00">dependencies</text>
<g id="clust1" class="cluster">
<title>cluster_PermissionsModule</title>
<polygon fill="none" stroke="black" stroke-dasharray="1,5" points="8,-32.8 8,-253.2 401,-253.2 401,-32.8 8,-32.8"/>
</g>
<g id="clust4" class="cluster">
<title>cluster_PermissionsModule_exports</title>
<polygon fill="none" stroke="black" points="43,-170.8 43,-245.2 315,-245.2 315,-170.8 43,-170.8"/>
</g>
<g id="clust6" class="cluster">
<title>cluster_PermissionsModule_providers</title>
<polygon fill="none" stroke="black" points="241,-40.8 241,-92.8 393,-92.8 393,-40.8 241,-40.8"/>
</g>
<g id="clust3" class="cluster">
<title>cluster_PermissionsModule_imports</title>
<polygon fill="none" stroke="black" points="16,-40.8 16,-92.8 233,-92.8 233,-40.8 16,-40.8"/>
</g>
<!-- RolesModule -->
<g id="node1" class="node">
<title>RolesModule</title>
<polygon fill="#8dd3c7" stroke="black" points="224.94,-84.8 221.94,-88.8 200.94,-88.8 197.94,-84.8 133.06,-84.8 133.06,-48.8 224.94,-48.8 224.94,-84.8"/>
<text text-anchor="middle" x="179" y="-62.6" font-family="Times,serif" font-size="14.00">RolesModule</text>
</g>
<!-- PermissionsModule -->
<g id="node3" class="node">
<title>PermissionsModule</title>
<polygon fill="#8dd3c7" stroke="black" points="242.73,-149.8 239.73,-153.8 218.73,-153.8 215.73,-149.8 115.27,-149.8 115.27,-113.8 242.73,-113.8 242.73,-149.8"/>
<text text-anchor="middle" x="179" y="-127.6" font-family="Times,serif" font-size="14.00">PermissionsModule</text>
</g>
<!-- RolesModule&#45;&gt;PermissionsModule -->
<g id="edge1" class="edge">
<title>RolesModule&#45;&gt;PermissionsModule</title>
<path fill="none" stroke="black" d="M179,-84.91C179,-84.91 179,-103.79 179,-103.79"/>
<polygon fill="black" stroke="black" points="175.5,-103.79 179,-113.79 182.5,-103.79 175.5,-103.79"/>
</g>
<!-- UsersModule -->
<g id="node2" class="node">
<title>UsersModule</title>
<polygon fill="#8dd3c7" stroke="black" points="115.94,-84.8 112.94,-88.8 91.94,-88.8 88.94,-84.8 24.06,-84.8 24.06,-48.8 115.94,-48.8 115.94,-84.8"/>
<text text-anchor="middle" x="70" y="-62.6" font-family="Times,serif" font-size="14.00">UsersModule</text>
</g>
<!-- UsersModule&#45;&gt;PermissionsModule -->
<g id="edge2" class="edge">
<title>UsersModule&#45;&gt;PermissionsModule</title>
<path fill="none" stroke="black" d="M115.98,-67.2C121.09,-67.2 124.5,-67.2 124.5,-67.2 124.5,-67.2 124.5,-103.46 124.5,-103.46"/>
<polygon fill="black" stroke="black" points="121,-103.46 124.5,-113.46 128,-103.46 121,-103.46"/>
</g>
<!-- {
 &#160;&#160;&#160;provide: , useClass: PermissionsService,
}  -->
<g id="node4" class="node">
<title>{
 &#160;&#160;&#160;provide: , useClass: PermissionsService,
} </title>
<polygon fill="#fb8072" stroke="black" points="307.2,-237.4 50.8,-237.4 50.8,-178.6 307.2,-178.6 307.2,-237.4"/>
<text text-anchor="middle" x="179" y="-220.6" font-family="Times,serif" font-size="14.00">{</text>
<text text-anchor="middle" x="179" y="-203.8" font-family="Times,serif" font-size="14.00"> &#160;&#160;&#160;provide: , useClass: PermissionsService,</text>
<text text-anchor="middle" x="179" y="-187" font-family="Times,serif" font-size="14.00">} </text>
</g>
<!-- PermissionsModule&#45;&gt;{
 &#160;&#160;&#160;provide: , useClass: PermissionsService,
}  -->
<g id="edge3" class="edge">
<title>PermissionsModule&#45;&gt;{
 &#160;&#160;&#160;provide: , useClass: PermissionsService,
} </title>
<path fill="none" stroke="black" stroke-dasharray="5,2" d="M179,-149.86C179,-149.86 179,-168.75 179,-168.75"/>
<polygon fill="black" stroke="black" points="175.5,-168.75 179,-178.75 182.5,-168.75 175.5,-168.75"/>
</g>
<!-- JwtAuthGuard -->
<g id="node5" class="node">
<title>JwtAuthGuard</title>
<ellipse fill="#fdb462" stroke="black" cx="317" cy="-66.8" rx="67.8" ry="18"/>
<text text-anchor="middle" x="317" y="-62.6" font-family="Times,serif" font-size="14.00">JwtAuthGuard</text>
</g>
<!-- JwtAuthGuard&#45;&gt;PermissionsModule -->
<g id="edge4" class="edge">
<title>JwtAuthGuard&#45;&gt;PermissionsModule</title>
<path fill="none" stroke="black" d="M248.95,-67.2C239.9,-67.2 233.67,-67.2 233.67,-67.2 233.67,-67.2 233.67,-103.46 233.67,-103.46"/>
<polygon fill="black" stroke="black" points="230.17,-103.46 233.67,-113.46 237.17,-103.46 230.17,-103.46"/>
</g>
</g>
</svg>
