<?xml version="1.0" encoding="UTF-8" standalone="no"?>
<!DOCTYPE svg PUBLIC "-//W3C//DTD SVG 1.1//EN"
 "http://www.w3.org/Graphics/SVG/1.1/DTD/svg11.dtd">
<!-- Generated by graphviz version 5.0.0 (20220707.1540)
 -->
<!-- Title: dependencies Pages: 1 -->
<svg width="1694pt" height="458pt"
 viewBox="0.00 0.00 1694.00 458.00" xmlns="http://www.w3.org/2000/svg" xmlns:xlink="http://www.w3.org/1999/xlink">
<g id="graph0" class="graph" transform="scale(1 1) rotate(0) translate(4 454)">
<title>dependencies</title>
<polygon fill="white" stroke="transparent" points="-4,4 -4,-454 1690,-454 1690,4 -4,4"/>
<text text-anchor="middle" x="843" y="-8.2" font-family="sans-serif" font-size="14.00">dependencies</text>
<g id="clust1" class="cluster">
<title>cluster_AppModule</title>
<polygon fill="none" stroke="black" stroke-dasharray="1,5" points="436,-131.2 436,-442 890,-442 890,-131.2 436,-131.2"/>
</g>
<g id="clust3" class="cluster">
<title>cluster_AppModule_imports</title>
<polygon fill="none" stroke="black" points="444,-139.2 444,-365.8 882,-365.8 882,-139.2 444,-139.2"/>
</g>
<g id="clust7" class="cluster">
<title>cluster_AuthModule</title>
<polygon fill="none" stroke="black" stroke-dasharray="1,5" points="493,-32.8 493,-123.2 1029,-123.2 1029,-32.8 493,-32.8"/>
</g>
<g id="clust10" class="cluster">
<title>cluster_AuthModule_exports</title>
<polygon fill="none" stroke="black" points="787,-40.8 787,-115.2 1021,-115.2 1021,-40.8 787,-40.8"/>
</g>
<g id="clust12" class="cluster">
<title>cluster_AuthModule_providers</title>
<polygon fill="none" stroke="black" points="501,-52 501,-104 779,-104 779,-52 501,-52"/>
</g>
<g id="clust13" class="cluster">
<title>cluster_GlobalModule</title>
<polygon fill="none" stroke="black" stroke-dasharray="1,5" points="898,-196.2 898,-286.6 1158,-286.6 1158,-196.2 898,-196.2"/>
</g>
<g id="clust16" class="cluster">
<title>cluster_GlobalModule_exports</title>
<polygon fill="none" stroke="black" points="906,-204.2 906,-278.6 1150,-278.6 1150,-204.2 906,-204.2"/>
</g>
<g id="clust19" class="cluster">
<title>cluster_OwnerModule</title>
<polygon fill="none" stroke="black" stroke-dasharray="1,5" points="8,-196.2 8,-286.6 428,-286.6 428,-196.2 8,-196.2"/>
</g>
<g id="clust22" class="cluster">
<title>cluster_OwnerModule_exports</title>
<polygon fill="none" stroke="black" points="176,-204.2 176,-278.6 420,-278.6 420,-204.2 176,-204.2"/>
</g>
<g id="clust24" class="cluster">
<title>cluster_OwnerModule_providers</title>
<polygon fill="none" stroke="black" points="16,-215.4 16,-267.4 168,-267.4 168,-215.4 16,-215.4"/>
</g>
<g id="clust25" class="cluster">
<title>cluster_PermissionsModule</title>
<polygon fill="none" stroke="black" stroke-dasharray="1,5" points="898,-294.6 898,-385 1186,-385 1186,-294.6 898,-294.6"/>
</g>
<g id="clust28" class="cluster">
<title>cluster_PermissionsModule_exports</title>
<polygon fill="none" stroke="black" points="906,-302.6 906,-377 1178,-377 1178,-302.6 906,-302.6"/>
</g>
<g id="clust31" class="cluster">
<title>cluster_RolesModule</title>
<polygon fill="none" stroke="black" stroke-dasharray="1,5" points="1166,-196.2 1166,-286.6 1418,-286.6 1418,-196.2 1166,-196.2"/>
</g>
<g id="clust34" class="cluster">
<title>cluster_RolesModule_exports</title>
<polygon fill="none" stroke="black" points="1174,-204.2 1174,-278.6 1410,-278.6 1410,-204.2 1174,-204.2"/>
</g>
<g id="clust37" class="cluster">
<title>cluster_UsersModule</title>
<polygon fill="none" stroke="black" stroke-dasharray="1,5" points="1426,-196.2 1426,-286.6 1678,-286.6 1678,-196.2 1426,-196.2"/>
</g>
<g id="clust40" class="cluster">
<title>cluster_UsersModule_exports</title>
<polygon fill="none" stroke="black" points="1434,-204.2 1434,-278.6 1670,-278.6 1670,-204.2 1434,-204.2"/>
</g>
<!-- AuthModule -->
<g id="node1" class="node">
<title>AuthModule</title>
<polygon fill="#8dd3c7" stroke="black" points="757.55,-183.2 754.55,-187.2 733.55,-187.2 730.55,-183.2 670.45,-183.2 670.45,-147.2 757.55,-147.2 757.55,-183.2"/>
<text text-anchor="middle" x="714" y="-161" font-family="Times,serif" font-size="14.00">AuthModule</text>
</g>
<!-- AppModule -->
<g id="node7" class="node">
<title>AppModule</title>
<polygon fill="#8dd3c7" stroke="black" points="722.66,-434 719.66,-438 698.66,-438 695.66,-434 639.34,-434 639.34,-398 722.66,-398 722.66,-434"/>
<text text-anchor="middle" x="681" y="-411.8" font-family="Times,serif" font-size="14.00">AppModule</text>
</g>
<!-- AuthModule&#45;&gt;AppModule -->
<g id="edge1" class="edge">
<title>AuthModule&#45;&gt;AppModule</title>
<path fill="none" stroke="black" d="M696.53,-183.24C696.53,-183.24 696.53,-387.79 696.53,-387.79"/>
<polygon fill="black" stroke="black" points="693.03,-387.79 696.53,-397.79 700.03,-387.79 693.03,-387.79"/>
</g>
<!-- {
 &#160;&#160;&#160;provide: , useClass: AuthService,
}  -->
<g id="node8" class="node">
<title>{
 &#160;&#160;&#160;provide: , useClass: AuthService,
} </title>
<polygon fill="#fb8072" stroke="black" points="1012.52,-107.4 795.48,-107.4 795.48,-48.6 1012.52,-48.6 1012.52,-107.4"/>
<text text-anchor="middle" x="904" y="-90.6" font-family="Times,serif" font-size="14.00">{</text>
<text text-anchor="middle" x="904" y="-73.8" font-family="Times,serif" font-size="14.00"> &#160;&#160;&#160;provide: , useClass: AuthService,</text>
<text text-anchor="middle" x="904" y="-57" font-family="Times,serif" font-size="14.00">} </text>
</g>
<!-- AuthModule&#45;&gt;{
 &#160;&#160;&#160;provide: , useClass: AuthService,
}  -->
<g id="edge7" class="edge">
<title>AuthModule&#45;&gt;{
 &#160;&#160;&#160;provide: , useClass: AuthService,
} </title>
<path fill="none" stroke="black" stroke-dasharray="5,2" d="M735.89,-146.92C735.89,-128.25 735.89,-102 735.89,-102 735.89,-102 785.16,-102 785.16,-102"/>
<polygon fill="black" stroke="black" points="785.16,-105.5 795.16,-102 785.16,-98.5 785.16,-105.5"/>
</g>
<!-- GlobalModule -->
<g id="node2" class="node">
<title>GlobalModule</title>
<polygon fill="#8dd3c7" stroke="black" points="873.66,-183.2 870.66,-187.2 849.66,-187.2 846.66,-183.2 776.34,-183.2 776.34,-147.2 873.66,-147.2 873.66,-183.2"/>
<text text-anchor="middle" x="825" y="-161" font-family="Times,serif" font-size="14.00">GlobalModule</text>
</g>
<!-- GlobalModule&#45;&gt;AppModule -->
<g id="edge2" class="edge">
<title>GlobalModule&#45;&gt;AppModule</title>
<path fill="none" stroke="black" d="M808.72,-183.24C808.72,-240.74 808.72,-416 808.72,-416 808.72,-416 732.82,-416 732.82,-416"/>
<polygon fill="black" stroke="black" points="732.82,-412.5 722.82,-416 732.82,-419.5 732.82,-412.5"/>
</g>
<!-- {
 &#160;&#160;&#160;provide: , useClass: GlobalService,
}  -->
<g id="node11" class="node">
<title>{
 &#160;&#160;&#160;provide: , useClass: GlobalService,
} </title>
<polygon fill="#fb8072" stroke="black" points="1141.63,-270.8 914.37,-270.8 914.37,-212 1141.63,-212 1141.63,-270.8"/>
<text text-anchor="middle" x="1028" y="-254" font-family="Times,serif" font-size="14.00">{</text>
<text text-anchor="middle" x="1028" y="-237.2" font-family="Times,serif" font-size="14.00"> &#160;&#160;&#160;provide: , useClass: GlobalService,</text>
<text text-anchor="middle" x="1028" y="-220.4" font-family="Times,serif" font-size="14.00">} </text>
</g>
<!-- GlobalModule&#45;&gt;{
 &#160;&#160;&#160;provide: , useClass: GlobalService,
}  -->
<g id="edge10" class="edge">
<title>GlobalModule&#45;&gt;{
 &#160;&#160;&#160;provide: , useClass: GlobalService,
} </title>
<path fill="none" stroke="black" stroke-dasharray="5,2" d="M841.28,-183.37C841.28,-198.64 841.28,-218 841.28,-218 841.28,-218 904.27,-218 904.27,-218"/>
<polygon fill="black" stroke="black" points="904.27,-221.5 914.27,-218 904.27,-214.5 904.27,-221.5"/>
</g>
<!-- OwnerModule -->
<g id="node3" class="node">
<title>OwnerModule</title>
<polygon fill="#8dd3c7" stroke="black" points="552.65,-357.8 549.65,-361.8 528.65,-361.8 525.65,-357.8 455.35,-357.8 455.35,-321.8 552.65,-321.8 552.65,-357.8"/>
<text text-anchor="middle" x="504" y="-335.6" font-family="Times,serif" font-size="14.00">OwnerModule</text>
</g>
<!-- OwnerModule&#45;&gt;AppModule -->
<g id="edge3" class="edge">
<title>OwnerModule&#45;&gt;AppModule</title>
<path fill="none" stroke="black" d="M552.75,-340C592.56,-340 642.28,-340 642.28,-340 642.28,-340 642.28,-387.99 642.28,-387.99"/>
<polygon fill="black" stroke="black" points="638.78,-387.99 642.28,-397.99 645.78,-387.99 638.78,-387.99"/>
</g>
<!-- {
 &#160;&#160;&#160;provide: , useClass: OwnerService,
}  -->
<g id="node12" class="node">
<title>{
 &#160;&#160;&#160;provide: , useClass: OwnerService,
} </title>
<polygon fill="#fb8072" stroke="black" points="411.62,-270.8 184.38,-270.8 184.38,-212 411.62,-212 411.62,-270.8"/>
<text text-anchor="middle" x="298" y="-254" font-family="Times,serif" font-size="14.00">{</text>
<text text-anchor="middle" x="298" y="-237.2" font-family="Times,serif" font-size="14.00"> &#160;&#160;&#160;provide: , useClass: OwnerService,</text>
<text text-anchor="middle" x="298" y="-220.4" font-family="Times,serif" font-size="14.00">} </text>
</g>
<!-- OwnerModule&#45;&gt;{
 &#160;&#160;&#160;provide: , useClass: OwnerService,
}  -->
<g id="edge14" class="edge">
<title>OwnerModule&#45;&gt;{
 &#160;&#160;&#160;provide: , useClass: OwnerService,
} </title>
<path fill="none" stroke="black" stroke-dasharray="5,2" d="M472.48,-321.69C472.48,-299.56 472.48,-265 472.48,-265 472.48,-265 421.94,-265 421.94,-265"/>
<polygon fill="black" stroke="black" points="421.94,-261.5 411.94,-265 421.94,-268.5 421.94,-261.5"/>
</g>
<!-- PermissionsModule -->
<g id="node4" class="node">
<title>PermissionsModule</title>
<polygon fill="#8dd3c7" stroke="black" points="651.73,-259.4 648.73,-263.4 627.73,-263.4 624.73,-259.4 524.27,-259.4 524.27,-223.4 651.73,-223.4 651.73,-259.4"/>
<text text-anchor="middle" x="588" y="-237.2" font-family="Times,serif" font-size="14.00">PermissionsModule</text>
</g>
<!-- PermissionsModule&#45;&gt;OwnerModule -->
<g id="edge11" class="edge">
<title>PermissionsModule&#45;&gt;OwnerModule</title>
<path fill="none" stroke="black" d="M538.61,-259.45C538.61,-259.45 538.61,-311.53 538.61,-311.53"/>
<polygon fill="black" stroke="black" points="535.11,-311.53 538.61,-321.53 542.11,-311.53 535.11,-311.53"/>
</g>
<!-- PermissionsModule&#45;&gt;AppModule -->
<g id="edge4" class="edge">
<title>PermissionsModule&#45;&gt;AppModule</title>
<path fill="none" stroke="black" d="M645.39,-259.43C645.39,-259.43 645.39,-387.81 645.39,-387.81"/>
<polygon fill="black" stroke="black" points="641.89,-387.81 645.39,-397.81 648.89,-387.81 641.89,-387.81"/>
</g>
<!-- {
 &#160;&#160;&#160;provide: , useClass: PermissionsService,
}  -->
<g id="node14" class="node">
<title>{
 &#160;&#160;&#160;provide: , useClass: PermissionsService,
} </title>
<polygon fill="#fb8072" stroke="black" points="1170.2,-369.2 913.8,-369.2 913.8,-310.4 1170.2,-310.4 1170.2,-369.2"/>
<text text-anchor="middle" x="1042" y="-352.4" font-family="Times,serif" font-size="14.00">{</text>
<text text-anchor="middle" x="1042" y="-335.6" font-family="Times,serif" font-size="14.00"> &#160;&#160;&#160;provide: , useClass: PermissionsService,</text>
<text text-anchor="middle" x="1042" y="-318.8" font-family="Times,serif" font-size="14.00">} </text>
</g>
<!-- PermissionsModule&#45;&gt;{
 &#160;&#160;&#160;provide: , useClass: PermissionsService,
}  -->
<g id="edge18" class="edge">
<title>PermissionsModule&#45;&gt;{
 &#160;&#160;&#160;provide: , useClass: PermissionsService,
} </title>
<path fill="none" stroke="black" stroke-dasharray="5,2" d="M648.5,-259.7C648.5,-282.07 648.5,-317 648.5,-317 648.5,-317 903.7,-317 903.7,-317"/>
<polygon fill="black" stroke="black" points="903.7,-320.5 913.7,-317 903.7,-313.5 903.7,-320.5"/>
</g>
<!-- RolesModule -->
<g id="node5" class="node">
<title>RolesModule</title>
<polygon fill="#8dd3c7" stroke="black" points="543.94,-183.2 540.94,-187.2 519.94,-187.2 516.94,-183.2 452.06,-183.2 452.06,-147.2 543.94,-147.2 543.94,-183.2"/>
<text text-anchor="middle" x="498" y="-161" font-family="Times,serif" font-size="14.00">RolesModule</text>
</g>
<!-- RolesModule&#45;&gt;OwnerModule -->
<g id="edge12" class="edge">
<title>RolesModule&#45;&gt;OwnerModule</title>
<path fill="none" stroke="black" d="M489.78,-183.23C489.78,-183.23 489.78,-311.61 489.78,-311.61"/>
<polygon fill="black" stroke="black" points="486.28,-311.61 489.78,-321.61 493.28,-311.61 486.28,-311.61"/>
</g>
<!-- RolesModule&#45;&gt;PermissionsModule -->
<g id="edge16" class="edge">
<title>RolesModule&#45;&gt;PermissionsModule</title>
<path fill="none" stroke="black" d="M539.85,-183.26C539.85,-183.26 539.85,-213.21 539.85,-213.21"/>
<polygon fill="black" stroke="black" points="536.35,-213.21 539.85,-223.21 543.35,-213.21 536.35,-213.21"/>
</g>
<!-- RolesModule&#45;&gt;AppModule -->
<g id="edge5" class="edge">
<title>RolesModule&#45;&gt;AppModule</title>
<path fill="none" stroke="black" d="M532.12,-183.52C532.12,-191.03 532.12,-198 532.12,-198 532.12,-198 661.65,-198 661.65,-198 661.65,-198 661.65,-387.79 661.65,-387.79"/>
<polygon fill="black" stroke="black" points="658.15,-387.79 661.65,-397.79 665.15,-387.79 658.15,-387.79"/>
</g>
<!-- {
 &#160;&#160;&#160;provide: , useClass: RolesService,
}  -->
<g id="node15" class="node">
<title>{
 &#160;&#160;&#160;provide: , useClass: RolesService,
} </title>
<polygon fill="#fb8072" stroke="black" points="1402.41,-270.8 1181.59,-270.8 1181.59,-212 1402.41,-212 1402.41,-270.8"/>
<text text-anchor="middle" x="1292" y="-254" font-family="Times,serif" font-size="14.00">{</text>
<text text-anchor="middle" x="1292" y="-237.2" font-family="Times,serif" font-size="14.00"> &#160;&#160;&#160;provide: , useClass: RolesService,</text>
<text text-anchor="middle" x="1292" y="-220.4" font-family="Times,serif" font-size="14.00">} </text>
</g>
<!-- RolesModule&#45;&gt;{
 &#160;&#160;&#160;provide: , useClass: RolesService,
}  -->
<g id="edge20" class="edge">
<title>RolesModule&#45;&gt;{
 &#160;&#160;&#160;provide: , useClass: RolesService,
} </title>
<path fill="none" stroke="black" stroke-dasharray="5,2" d="M535.99,-183.28C535.99,-188.59 535.99,-193 535.99,-193 535.99,-193 1292,-193 1292,-193 1292,-193 1292,-202.13 1292,-202.13"/>
<polygon fill="black" stroke="black" points="1288.5,-202.13 1292,-212.13 1295.5,-202.13 1288.5,-202.13"/>
</g>
<!-- UsersModule -->
<g id="node6" class="node">
<title>UsersModule</title>
<polygon fill="#8dd3c7" stroke="black" points="652.94,-183.2 649.94,-187.2 628.94,-187.2 625.94,-183.2 561.06,-183.2 561.06,-147.2 652.94,-147.2 652.94,-183.2"/>
<text text-anchor="middle" x="607" y="-161" font-family="Times,serif" font-size="14.00">UsersModule</text>
</g>
<!-- UsersModule&#45;&gt;OwnerModule -->
<g id="edge13" class="edge">
<title>UsersModule&#45;&gt;OwnerModule</title>
<path fill="none" stroke="black" d="M583.87,-183.6C583.87,-195.2 583.87,-208 583.87,-208 583.87,-208 507.08,-208 507.08,-208 507.08,-208 507.08,-311.75 507.08,-311.75"/>
<polygon fill="black" stroke="black" points="503.58,-311.75 507.08,-321.75 510.58,-311.75 503.58,-311.75"/>
</g>
<!-- UsersModule&#45;&gt;PermissionsModule -->
<g id="edge17" class="edge">
<title>UsersModule&#45;&gt;PermissionsModule</title>
<path fill="none" stroke="black" d="M629.03,-183.26C629.03,-183.26 629.03,-213.21 629.03,-213.21"/>
<polygon fill="black" stroke="black" points="625.53,-213.21 629.03,-223.21 632.53,-213.21 625.53,-213.21"/>
</g>
<!-- UsersModule&#45;&gt;AppModule -->
<g id="edge6" class="edge">
<title>UsersModule&#45;&gt;AppModule</title>
<path fill="none" stroke="black" d="M652.86,-166C660.47,-166 665.94,-166 665.94,-166 665.94,-166 665.94,-387.62 665.94,-387.62"/>
<polygon fill="black" stroke="black" points="662.44,-387.62 665.94,-397.62 669.44,-387.62 662.44,-387.62"/>
</g>
<!-- {
 &#160;&#160;&#160;provide: , useClass: UsersService,
}  -->
<g id="node16" class="node">
<title>{
 &#160;&#160;&#160;provide: , useClass: UsersService,
} </title>
<polygon fill="#fb8072" stroke="black" points="1662.41,-270.8 1441.59,-270.8 1441.59,-212 1662.41,-212 1662.41,-270.8"/>
<text text-anchor="middle" x="1552" y="-254" font-family="Times,serif" font-size="14.00">{</text>
<text text-anchor="middle" x="1552" y="-237.2" font-family="Times,serif" font-size="14.00"> &#160;&#160;&#160;provide: , useClass: UsersService,</text>
<text text-anchor="middle" x="1552" y="-220.4" font-family="Times,serif" font-size="14.00">} </text>
</g>
<!-- UsersModule&#45;&gt;{
 &#160;&#160;&#160;provide: , useClass: UsersService,
}  -->
<g id="edge21" class="edge">
<title>UsersModule&#45;&gt;{
 &#160;&#160;&#160;provide: , useClass: UsersService,
} </title>
<path fill="none" stroke="black" stroke-dasharray="5,2" d="M606.45,-183.48C606.45,-186.68 606.45,-189 606.45,-189 606.45,-189 1552,-189 1552,-189 1552,-189 1552,-202.14 1552,-202.14"/>
<polygon fill="black" stroke="black" points="1548.5,-202.14 1552,-212.14 1555.5,-202.14 1548.5,-202.14"/>
</g>
<!-- JwtStrategy -->
<g id="node9" class="node">
<title>JwtStrategy</title>
<ellipse fill="#fdb462" stroke="black" cx="714" cy="-78" rx="56.77" ry="18"/>
<text text-anchor="middle" x="714" y="-73.8" font-family="Times,serif" font-size="14.00">JwtStrategy</text>
</g>
<!-- JwtStrategy&#45;&gt;AuthModule -->
<g id="edge8" class="edge">
<title>JwtStrategy&#45;&gt;AuthModule</title>
<path fill="none" stroke="black" d="M714,-96.07C714,-96.07 714,-137.16 714,-137.16"/>
<polygon fill="black" stroke="black" points="710.5,-137.16 714,-147.16 717.5,-137.16 710.5,-137.16"/>
</g>
<!-- LocalStrategy -->
<g id="node10" class="node">
<title>LocalStrategy</title>
<ellipse fill="#fdb462" stroke="black" cx="574" cy="-78" rx="65.4" ry="18"/>
<text text-anchor="middle" x="574" y="-73.8" font-family="Times,serif" font-size="14.00">LocalStrategy</text>
</g>
<!-- LocalStrategy&#45;&gt;AuthModule -->
<g id="edge9" class="edge">
<title>LocalStrategy&#45;&gt;AuthModule</title>
<path fill="none" stroke="black" d="M600.24,-94.65C600.24,-109.19 600.24,-128 600.24,-128 600.24,-128 692.11,-128 692.11,-128 692.11,-128 692.11,-137.04 692.11,-137.04"/>
<polygon fill="black" stroke="black" points="688.61,-137.04 692.11,-147.04 695.61,-137.04 688.61,-137.04"/>
</g>
<!-- JwtAuthGuard -->
<g id="node13" class="node">
<title>JwtAuthGuard</title>
<ellipse fill="#fdb462" stroke="black" cx="92" cy="-241.4" rx="67.8" ry="18"/>
<text text-anchor="middle" x="92" y="-237.2" font-family="Times,serif" font-size="14.00">JwtAuthGuard</text>
</g>
<!-- JwtAuthGuard&#45;&gt;OwnerModule -->
<g id="edge15" class="edge">
<title>JwtAuthGuard&#45;&gt;OwnerModule</title>
<path fill="none" stroke="black" d="M92,-259.48C92,-287.95 92,-340 92,-340 92,-340 445.12,-340 445.12,-340"/>
<polygon fill="black" stroke="black" points="445.12,-343.5 455.12,-340 445.12,-336.5 445.12,-343.5"/>
</g>
<!-- JwtAuthGuard&#45;&gt;PermissionsModule -->
<g id="edge19" class="edge">
<title>JwtAuthGuard&#45;&gt;PermissionsModule</title>
<path fill="none" stroke="black" d="M92,-223.1C92,-213.21 92,-203 92,-203 92,-203 528.25,-203 528.25,-203 528.25,-203 528.25,-213.1 528.25,-213.1"/>
<polygon fill="black" stroke="black" points="524.75,-213.1 528.25,-223.1 531.75,-213.1 524.75,-213.1"/>
</g>
</g>
</svg>
